<?xml version="1.0" standalone="no"?>
<!DOCTYPE svg PUBLIC "-//W3C//DTD SVG 20010904//EN"
 "http://www.w3.org/TR/2001/REC-SVG-20010904/DTD/svg10.dtd">
<svg version="1.0" xmlns="http://www.w3.org/2000/svg"
 width="795.000000pt" height="795.000000pt" viewBox="0 0 795.000000 795.000000"
 preserveAspectRatio="xMidYMid meet">
<metadata>
Created by potrace 1.11, written by Peter Selinger 2001-2013
</metadata>
<g transform="translate(0.000000,795.000000) scale(0.100000,-0.100000)"
fill="#000000" stroke="none">
<path d="M3600 7924 c-691 -74 -1293 -291 -1845 -665 -1287 -869 -1948 -2415
-1690 -3947 283 -1674 1605 -2989 3275 -3256 254 -41 372 -50 645 -50 280 1
434 14 695 60 898 160 1723 633 2314 1329 529 622 834 1327 932 2160 24 198
24 628 0 830 -110 940 -493 1742 -1141 2390 -664 664 -1499 1057 -2444 1150
-189 18 -567 18 -741 -1z m805 -2721 c268 -324 490 -589 494 -591 4 -1 189
255 411 570 221 315 410 581 419 591 15 16 40 17 295 15 l278 -3 -1245 -1810
-1244 -1810 -282 -3 c-154 -1 -281 0 -281 3 0 3 304 461 676 1019 l676 1015
-316 398 c-175 219 -419 528 -544 686 l-227 288 -932 -7 -933 -6 0 109 c0 60
3 113 7 116 3 4 514 7 1134 7 l1128 0 486 -587z m-817 -1012 c-1 -5 -42 -57
-91 -115 l-87 -106 -765 0 -765 0 0 -905 0 -905 -115 0 -115 0 0 1020 0 1020
971 0 c584 0 969 -4 967 -9z"/>
</g>
</svg>
