<?xml version="1.0" standalone="no"?>
<!DOCTYPE svg PUBLIC "-//W3C//DTD SVG 20010904//EN"
 "http://www.w3.org/TR/2001/REC-SVG-20010904/DTD/svg10.dtd">
<svg version="1.0" xmlns="http://www.w3.org/2000/svg"
 width="795.000000pt" height="795.000000pt" viewBox="0 0 795.000000 795.000000"
 preserveAspectRatio="xMidYMid meet">
<metadata>
Created by potrace 1.11, written by Peter Selinger 2001-2013
</metadata>
<g transform="translate(0.000000,795.000000) scale(0.100000,-0.100000)"
fill="#000000" stroke="none">
<path d="M3700 7937 c-3 -2 -41 -7 -85 -11 -132 -11 -143 -12 -378 -52 -128
-21 -303 -67 -487 -126 -944 -305 -1751 -969 -2240 -1842 -238 -425 -401 -913
-464 -1386 -8 -63 -18 -133 -21 -155 -15 -87 -14 -648 1 -784 62 -590 251
-1160 546 -1650 90 -148 266 -401 308 -441 3 -3 25 -30 50 -60 318 -392 799
-774 1277 -1013 370 -186 885 -342 1263 -382 30 -4 60 -8 67 -10 56 -18 564
-27 743 -13 864 68 1682 414 2326 985 141 125 301 288 409 418 22 26 52 62 66
79 14 17 58 74 96 127 439 597 698 1290 760 2039 10 115 10 501 0 629 -10 135
-33 302 -62 451 -141 733 -517 1451 -1045 1994 -639 658 -1498 1083 -2385
1181 -33 4 -71 9 -85 12 -33 7 -654 17 -660 10z"/>
</g>
</svg>
